<svg xmlns="http://www.w3.org/2000/svg" viewBox="0 0 200 200">
  <rect id="background" height="200" width="200" fill="gold"/>
  <rect id="head" x="135" y="20" width="30" height="35" rx="5" ry="5"/>
  <rect id="neck" x="142" y="50" width="16" height="40"/>
  <path id="J" d="M 65,154.6 C 67.8,159.6 70.5,164 76.8,164 C 82.8,164 86.6,161.7 86.6,152.5 L 86.6,90 L 105,90 L 105,152.7 C 105,171.7 93.8,180.4 77.6,180.4 C 62.9,180.4 54.3,172.8 50,163.6 Z"/>
  <path id="S" d="M 131,153 C 135,159.4 140,164 149,164 C 156.7,164 161.6,160.3 161.6,155 C 161.6,148.7 156.6,146.5 148.2,142.8 L 143.6,140.8 C 130.4,135.2 121.6,128.1 121.6,113.2 C 121.6,99.4 132.1,88.9 148.6,88.9 C 160.2,88.9 168.6,92.9 174.6,103.5 L 160.3,112.7 C 157.3,107.1 153.8,104.7 148.5,104.7 C 143.1,104.7 139.7,108.3 139.7,112.7 C 139.7,118.2 143.1,120.5 151,123.9 L 155.6,125.9 C 171.2,132.5 180,139.4 180,154.7 C 180,171.2 167,180.3 149.6,180.3 C 132.6,180.3 121.6,172.3 116.1,161.5 Z"/>
  <rect id="string1" x="140" y="135" width="3" height="30"/>
  <rect id="string2" x="146" y="135" width="3" height="30"/>
  <rect id="string3" x="152" y="135" width="3" height="30"/>
</svg>
